<?xml version="1.0" encoding="UTF-8"?>
<svg width="14px" height="14px" viewBox="0 0 14 14" version="1.1" xmlns="http://www.w3.org/2000/svg" xmlns:xlink="http://www.w3.org/1999/xlink">
    <!-- Generator: Sketch 54.1 (76490) - https://sketchapp.com -->
    <title>admin_cuentas</title>
    <desc>Created with Sketch.</desc>
    <g id="Page-1" stroke="none" stroke-width="1" fill="none" fill-rule="evenodd">
        <g id="admin_cuentas" fill="#FFC65A">
            <g id="admin">
                <path d="M6.82192,10.74248 C4.65696,10.74248 2.90192,8.98688 2.90192,6.82192 C2.90192,4.65696 4.65696,2.90136 6.82192,2.90136 C8.98688,2.90136 10.74192,4.65696 10.74192,6.82192 C10.74192,8.98688 8.98688,10.74248 6.82192,10.74248 M12.98192,5.36424 L12.3144,5.36424 C12.03944,5.36424 11.79584,5.19288 11.69672,4.93584 C11.66704,4.85912 11.63568,4.78296 11.60264,4.70848 C11.4912,4.45648 11.54272,4.1636 11.73704,3.96872 L12.20912,3.4972 C12.46728,3.23904 12.46728,2.82072 12.20912,2.56256 L11.08128,1.43472 C10.82368,1.17656 10.4048,1.17656 10.14664,1.43472 L9.67512,1.9068 C9.4808,2.10112 9.18736,2.15208 8.93536,2.0412 C8.86088,2.00816 8.78472,1.9768 8.708,1.94712 C8.45152,1.848 8.28016,1.6044 8.28016,1.32888 L8.28016,0.66136 C8.28016,0.2968 7.98392,6.99884595e-13 7.6188,6.99884595e-13 L6.02448,6.99884595e-13 C5.65936,6.99884595e-13 5.36368,0.2968 5.36368,0.66136 L5.36368,1.32888 C5.36368,1.6044 5.19232,1.848 4.93584,1.94712 C4.85912,1.97736 4.78296,2.00816 4.70848,2.0412 C4.45648,2.15208 4.16304,2.10112 3.96872,1.9068 L3.4972,1.43472 C3.23904,1.17656 2.82016,1.17656 2.562,1.43472 L1.43472,2.56256 C1.17656,2.82072 1.17656,3.23904 1.43472,3.4972 L1.9068,3.96872 C2.10112,4.1636 2.15264,4.45648 2.0412,4.70848 C2.00816,4.78296 1.9768,4.85912 1.94712,4.93584 C1.848,5.19288 1.6044,5.36424 1.32888,5.36424 L0.66136,5.36424 C0.29624,5.36424 5.96855898e-13,5.65992 5.96855898e-13,6.02448 L5.96855898e-13,7.61936 C5.96855898e-13,7.98392 0.29624,8.28016 0.66136,8.28016 L1.32888,8.28016 C1.6044,8.28016 1.848,8.45152 1.94712,8.708 C1.9768,8.78472 2.00816,8.86088 2.0412,8.93536 C2.15264,9.18736 2.10112,9.48024 1.9068,9.67512 L1.43472,10.1472 C1.17656,10.4048 1.17656,10.82368 1.43472,11.08128 L2.562,12.20912 C2.82016,12.46728 3.23904,12.46728 3.4972,12.20912 L3.96872,11.73704 C4.16304,11.54272 4.45648,11.49176 4.70848,11.60264 C4.78296,11.63568 4.85912,11.66648 4.93584,11.69672 C5.19232,11.79584 5.36368,12.03944 5.36368,12.31496 L5.36368,12.98248 C5.36368,13.34704 5.65936,13.64384 6.02448,13.64384 L7.6188,13.64384 C7.98392,13.64384 8.28016,13.34704 8.28016,12.98248 L8.28016,12.31496 C8.28016,12.03944 8.45152,11.79584 8.708,11.69672 C8.78472,11.66648 8.86088,11.63568 8.93536,11.60264 C9.18736,11.49176 9.48024,11.54272 9.67456,11.73704 L10.14664,12.20912 C10.4048,12.46728 10.82368,12.46728 11.08128,12.20912 L12.20912,11.08128 C12.46728,10.82368 12.46728,10.4048 12.20912,10.1472 L11.73704,9.67512 C11.54272,9.48024 11.4912,9.18736 11.60264,8.93536 C11.63568,8.86088 11.66704,8.78472 11.69672,8.708 C11.79528,8.45152 12.03944,8.28016 12.3144,8.28016 L12.98192,8.28016 C13.34704,8.28016 13.64328,7.98392 13.64328,7.61936 L13.64328,6.02448 C13.64328,5.65992 13.34704,5.36424 12.98192,5.36424" id="Fill-1"></path>
                <path d="M8.320368,7.39396 C8.320368,7.39396 7.125888,7.08036 7.599088,6.6458 C8.072288,6.2118 8.217888,5.48156 8.114848,4.88348 C8.026368,4.3666 7.704368,3.87716 7.141568,3.75228 C7.035168,3.74164 6.931568,3.7198 6.821808,3.7198 C6.712048,3.7198 6.608448,3.74164 6.502048,3.75228 C5.939248,3.87716 5.617248,4.3666 5.528768,4.88348 C5.426288,5.48156 5.571888,6.2118 6.045088,6.6458 C6.517728,7.08036 5.323248,7.39396 5.323248,7.39396 C4.594128,7.65156 4.280528,8.00884 4.147248,8.29164 C4.139968,8.30788 4.139408,8.32468 4.133248,8.34092 C4.666368,9.28116 5.663728,9.92404 6.821808,9.92404 C7.979888,9.92404 8.977808,9.28116 9.510368,8.34092 C9.504768,8.32468 9.504208,8.30788 9.496368,8.29164 C9.363088,8.00884 9.049488,7.65156 8.320368,7.39396" id="Fill-4"></path>
            </g>
        </g>
    </g>
</svg>