<svg xmlns="http://www.w3.org/2000/svg" width="13.377" height="19.288" viewBox="0 0 13.377 19.288"><defs><style>.a{fill:#FFC65A;}</style></defs><g transform="translate(0 0)"><path class="a" d="M7.435,19.288a.977.977,0,0,1-.308-.052L4.789,18.45l-.048-.016L3.15,17.9l-.372-.125c-.734-.247-1.494-.5-2.243-.751a.743.743,0,0,1-.535-.8V3.057c0-.552.137-.739.665-.91L2.38,1.592l.008,0h0C3.92,1.1,5.5.584,7.052.056A.993.993,0,0,1,7.374,0a.8.8,0,0,1,.6.255.815.815,0,0,1,.211.626,8.34,8.34,0,0,0-.011.843c0,.12.005.243.005.364a.228.228,0,0,0,0,.038c0,.012,0,.027.008.046h4.37a.714.714,0,0,1,.819.806q0,6.619,0,13.235c0,.56-.263.821-.829.822H8.175v.315c0,.208,0,.411,0,.613v.511A.746.746,0,0,1,7.435,19.288ZM8.193,3.674V15.536h3.688V3.674ZM6.678,8.858a.237.237,0,0,0-.2.147,2.037,2.037,0,0,0-.146.4c-.018.063-.037.128-.058.192.021.065.04.132.058.2a2.051,2.051,0,0,0,.142.4.243.243,0,0,0,.2.154.3.3,0,0,0,.221-.135A1.248,1.248,0,0,0,6.9,9,.3.3,0,0,0,6.678,8.858Z" transform="translate(0 0)"/></g></svg>