<svg xmlns="http://www.w3.org/2000/svg" xmlns:xlink="http://www.w3.org/1999/xlink" width="536.887" height="536.938" viewBox="0 0 536.887 536.938">
  <defs>
    <clipPath id="clip-path">
      <rect width="536.887" height="536.938" fill="none"/>
    </clipPath>
    <clipPath id="clip-path-2">
      <path id="Clip_38" data-name="Clip 38" d="M0,0H18.553V74.022H0Z" transform="translate(0 0.805)" fill="none"/>
    </clipPath>
    <clipPath id="clip-path-3">
      <path id="Clip_49" data-name="Clip 49" d="M0,536.938H536.887V0H0Z" fill="none"/>
    </clipPath>
  </defs>
  <g id="QR_Code" data-name="QR Code" clip-path="url(#clip-path)">
    <g id="Group_81" data-name="Group 81" transform="translate(0 0)">
      <path id="Fill_1" data-name="Fill 1" d="M166.873,259.088H148.322V222.244H129.959V240.27c-.955.27-18.708.451-34.691.451-11.891,0-19.779-.1-21.1-.256V222.18H56.107c-.027-.228-.059-.459-.091-.682a11.829,11.829,0,0,1-.153-1.592c-.018-3.378-.016-6.813-.013-10.135v-.006q0-1.733,0-3.466v-2.232a10.527,10.527,0,0,0-2.913-.349c-.445,0-.89.015-1.321.029h-.007c-.434.015-.879.03-1.314.03-.178,0-.343,0-.5-.007-.72-.022-1.49-.033-2.423-.033-.637,0-1.284,0-1.91.01h-.01c-.629,0-1.28.01-1.92.01H37.4V185.237h36.58v-18.59H55.943V129.691H73.993V111.174H37.33v36.971l-9.681.086h-.118l-8.577.076c-.027-.228-.059-.458-.091-.681a11.83,11.83,0,0,1-.153-1.589c-.018-3.486-.016-7.027-.013-10.451q0-1.786,0-3.572v-2.35H.378c-.015-.316-.032-.6-.048-.876-.031-.535-.058-.995-.059-1.458,0-1.873,0-3.771,0-5.607,0-2.753,0-5.6-.011-8.415A11.252,11.252,0,0,0,.132,111.9c-.029-.218-.059-.442-.082-.665.279-.018.563-.041.838-.062.621-.049,1.263-.1,1.9-.1,2.056-.008,4.062-.009,5.753-.009h2.215c1.845,0,3.751,0,5.627,0,.46,0,.908-.026,1.428-.055.268-.015.544-.031.846-.044V92.526H74.136V55.811c.228-.032.429-.066.624-.1a6.154,6.154,0,0,1,1.005-.12c2.928-.008,5.356-.012,7.641-.012,2.683,0,5.125.006,7.464.017a4.561,4.561,0,0,1,1.1.193c.166.043.337.088.506.123.025-.156.055-.315.084-.469v-.007a6.271,6.271,0,0,0,.146-1.153c0-4.354-.009-8.773-.02-13.046V40.97q-.005-1.875-.01-3.749c.272-.023.548-.051.815-.078a18.773,18.773,0,0,1,1.889-.129c14.675-.009,29.6-.01,44.029-.011h.239l24.363,0c.618,0,1.248-.03,1.857-.059.29-.014.588-.028.887-.039V18.577H148.346V0L150,0h.71l34.773.067V18.634h18.14c.046,5.807.083,10.649.117,15.242,0,.6,0,1.2,0,1.882v.014c0,.372,0,.768,0,1.2,2.11.029,4.156.033,5.7.033l2.654,0h.195q1.344,0,2.684,0H216.1c1.488,0,3.094,0,5.055,0h19.61V55.487H185.751c-.046.186-.094.348-.136.492a2.531,2.531,0,0,0-.145.705c0,11.184.014,22.53.026,33.5l0,2.259-4.1.012c-3.217.01-6.544.021-9.836.021H170.3c-.735,0-1.481-.049-2.2-.1-.319-.021-.648-.043-.971-.06-.026.1-.058.2-.089.295a2.371,2.371,0,0,0-.15.7c0,6.028.021,12.076.042,17.2a.574.574,0,0,0,.123.268c.05.078.11.175.18.3H185.5V129.6H166.982v18.58h18.425v18.373c2.409.04,4.956.058,8.26.058,1.466,0,2.943,0,4.372-.007h.082c1.326,0,2.7-.006,4.042-.006l1.7,0c2.164,0,4.5.007,7.362.007l5.415,0h.133l5.5,0c.052,4.66.044,9.15.035,13.9,0,1.728-.006,3.167-.006,4.672H185.482v36.813h-18.56q-.008,1.418-.016,2.794v.006c-.013,2.257-.025,4.389-.031,6.552-.006,2.233,0,4.47,0,6.633q0,1.325,0,2.649v18.46Zm-18.317-73.82h0c-.417,2.518-.351,16.718.085,18.306a70.3,70.3,0,0,0,7.261.263c4.594,0,10-.2,10.976-.558-.011-2.211-.006-4.462,0-6.638v-.007c.008-3.711.016-7.548-.051-11.366H148.556Zm-26.414-.146h0c-4.513,0-9.822.17-10.773.484V203.5a71.063,71.063,0,0,0,8.113.3c4.327,0,9.386-.15,10.242-.427V185.395a71.683,71.683,0,0,0-7.58-.271Zm6.169-74.171h0c-16.024,0-34.529.191-35.464.464V166.45h55.238c.217-1.515.283-15.243.252-28.175-.03-12.5-.159-26.307-.373-27.088-1.627-.148-8.789-.234-19.649-.234Zm20.236-55.238h0c-.223,1.367-.3,10.4-.273,18.748.024,8.073.152,17.139.379,17.969h3.637c4.635,0,9.569,0,14.449-.006a.7.7,0,0,0,.275-.084c.033-.015.065-.03.1-.042-.024-.235-.055-.475-.084-.707a12.867,12.867,0,0,1-.137-1.6c-.011-6.927-.011-13.959-.012-20.759v-.422q0-5.381,0-10.762c0-.517-.023-1.027-.046-1.566-.01-.222-.022-.5-.031-.77H148.546ZM104.94,55.6c-3.633,0-7.538,0-11.481.016a1.733,1.733,0,0,0-.676.208c-.09.041-.183.084-.276.119.021.225.047.453.073.675a14.709,14.709,0,0,1,.125,1.626c.01,8.637.01,17.421.009,25.915v8.187h18.4c.232-2.069.287-11.172.238-19.275s-.213-16.658-.468-17.469H104.94Z" transform="translate(295.967 277.818)"/>
      <path id="Fill_3" data-name="Fill 3" d="M18.435,166.743c-1-.06-2-.166-3-.17-4.319-.019-8.639-.009-12.958-.009H.032V129.649H18.368V55.54H0V37.16a48.339,48.339,0,0,1,7.252-.184c2.447-.051,4.9-.011,7.342-.011H36.923V18.635H18.615c-.056-.88-.129-1.507-.13-2.134-.01-4.752,0-9.5-.016-14.254,0-.705-.141-1.41-.214-2.119l-.044.049c.713-.059,1.426-.168,2.138-.169q25.7-.015,51.4,0c.7,0,1.4.064,2.277.106V18.436h37.155V.143h55.147c.4,1.536.5,34.075.1,36.689h-18.3V18.684H129.5v2.345q0,16.089,0,32.178c0,.861-.076,1.722-.116,2.583l.079-.1a5.166,5.166,0,0,0-.836-.137q-8.005-.015-16.012,0a7.085,7.085,0,0,0-1.424.3V37.087H92.9c-.438,2.406-.358,16.7.129,18.453h2.291c4.531,0,9.062-.012,13.593.011.777,0,1.554.155,2.332.235q.011,9.267.016,18.539l.047-.05c-.64-.054-1.28-.152-1.921-.153q-16.686-.013-33.373,0a17.532,17.532,0,0,0-1.9.2V55.69H55.577V74.338a5.389,5.389,0,0,0-1.04-.205q-8.074-.021-16.149,0a6.708,6.708,0,0,0-1.2.221V92.408H55.582q0,9.318-.011,18.635H37.053v37.194H18.477c0,1.112.005,1.964,0,2.816q-.052,7.868-.109,15.735Z" transform="translate(370.203 148.258)"/>
      <path id="Fill_5" data-name="Fill 5" d="M102,129.555H27.242A27.219,27.219,0,0,1,0,102.313V27.365A27.215,27.215,0,0,1,27.106.124C43.12.046,64.141,0,83.339,0c6.784,0,13.083.006,18.722.017a27.217,27.217,0,0,1,27.18,27.242v75.054A27.219,27.219,0,0,1,102,129.555ZM45.821,18.739A27.221,27.221,0,0,0,18.579,45.982v37.8a27.22,27.22,0,0,0,27.242,27.242H83.638a27.22,27.22,0,0,0,27.243-27.242v-37.8A27.22,27.22,0,0,0,83.638,18.739Z" transform="translate(407.311 0)"/>
      <path id="Fill_7" data-name="Fill 7" d="M102.252,129.387H27.361A27.2,27.2,0,0,1,.129,102.3C.015,80.063-.029,49.167.02,27.163A27.206,27.206,0,0,1,27.251,0h74.9a27.2,27.2,0,0,1,27.232,27.1c.106,22.492.147,53.386.1,75.128a27.206,27.206,0,0,1-27.232,27.161ZM45.924,18.519A27.208,27.208,0,0,0,18.692,45.75V83.568A27.21,27.21,0,0,0,45.924,110.8H83.792a27.21,27.21,0,0,0,27.233-27.232V45.75a27.21,27.21,0,0,0-27.233-27.23Z" transform="translate(0.059 0.225)"/>
      <path id="Fill_9" data-name="Fill 9" d="M101.74,129.32H27.35A27.327,27.327,0,0,1,0,101.971V27.35A27.328,27.328,0,0,1,27.35,0H101.74a27.327,27.327,0,0,1,27.349,27.35v74.621A27.327,27.327,0,0,1,101.74,129.32ZM45.846,18.453A27.327,27.327,0,0,0,18.5,45.8V83.459a27.327,27.327,0,0,0,27.349,27.349h37.63a27.328,27.328,0,0,0,27.35-27.349V45.8a27.328,27.328,0,0,0-27.35-27.349Z" transform="translate(0.265 407.425)"/>
      <path id="Fill_11" data-name="Fill 11" d="M18.453,110.755H0V36.909H18.408V18.5H37V0H92.552c.084,1.634.073,3.308.062,4.926-.005.757-.01,1.54-.006,2.31.009,1.721.007,3.469.005,5.161q0,1.091,0,2.183v22.27h14.851c5.784,0,12.612,0,19.4.011a16.491,16.491,0,0,1,1.741.124c.253.027.514.055.771.077l0,6.2q0,6.151-.007,12.3c-.067-.013-.134-.027-.2-.042a2.762,2.762,0,0,0-.573-.083c-3.125-.005-5.907-.008-8.5-.008-2.779,0-5.34,0-7.829.009a4.028,4.028,0,0,0-.834.125c-.164.036-.334.073-.525.106,0,.329,0,.645,0,.952,0,.59,0,1.146,0,1.7q-.027,3.982-.055,7.962-.027,3.93-.054,7.86c-.77-.015-1.552-.035-2.308-.054-1.681-.042-3.415-.085-5.12-.085h-.211c-2.447,0-4.935.047-7.341.089h-.005c-1.01.017-2.055.035-3.082.05L92.59,60.863l-.053-5.291H74.09v18.59c-.469-.017-.945-.037-1.406-.056-1.076-.045-2.186-.092-3.278-.1C67.684,74,65.8,74,63.481,74l-3.832,0h-.117L55.5,74q-.006.973-.013,1.918v.009c-.01,1.424-.02,2.769-.024,4.139,0,1.422,0,2.868,0,4.267q0,.892,0,1.78v6.1H37.072q-.007-1.045-.015-2.1v-.009c-.01-1.252-.02-2.547-.024-3.824,0-1.372,0-2.767,0-4.116v-.021q0-.955,0-1.91v-6.11H18.453v36.626ZM46.3,36.845c-2.357,0-4.619,0-7.331.011-.38,0-.768.04-1.179.081-.2.02-.408.041-.628.059v18.1a59.511,59.511,0,0,0,8.333.35c4.131,0,9.011-.142,9.965-.454v-2.1q0-1.567,0-3.134v-.1c0-3.39,0-6.9.012-10.351a11.919,11.919,0,0,1,.123-1.437c.027-.212.054-.43.076-.645l.036.006-.005-.035v-.005c.233-.035.47-.08.7-.123a8.814,8.814,0,0,1,1.551-.2c2.327-.016,4.631-.018,6.774-.018h3.465c1.069,0,2.215,0,3.362,0,.524,0,1.05-.032,1.559-.062.235-.014.478-.028.712-.039.237-1.728.285-6.321.255-9.729a65.891,65.891,0,0,0-.4-8.418H55.566c-.014.165-.03.312-.045.453a6.888,6.888,0,0,0-.053.727c-.007,4.84-.014,10.325.005,15.759a6.539,6.539,0,0,0,.142,1.15c.03.165.062.335.087.5H55.7l-.021,0,0,.017v.012c-.209-.039-.418-.087-.621-.134a6.666,6.666,0,0,0-1.418-.221C51.432,36.852,49.034,36.845,46.3,36.845Z" transform="translate(0.004 148.373)"/>
      <path id="Fill_13" data-name="Fill 13" d="M92.029,18.963a9.718,9.718,0,0,1,1.861-.37q17.166-.03,34.33-.006c.286,0,.571.054,1.11.109.255,2.385.081,4.807.112,7.215.031,2.447.007,4.894.007,7.342V55.469h36.888v18.55h-18.43v18.46H129.536V74.12c-2.156-.022-4.141-.051-6.124-.06-2.088-.01-4.175,0-6.262,0h-6.189V55.506c-2.948-.046-5.724-.018-8.5-.023q-4.21-.007-8.421,0H18.333V37H0V18.636c3-.123,5.99-.043,8.976-.058,3.008-.014,6.015,0,9.3,0V.292l-.046.062A10.256,10.256,0,0,1,20.074.015Q36.8-.015,53.531.007c.556,0,1.111.1,1.778.161V18.514h-18.3V36.577c1.411.416,51.777.566,55.024.144.068-.117.2-.235.2-.352q.039-8.308.047-16.617a3.068,3.068,0,0,0-.229-.808Z" transform="translate(37.184 333.399)"/>
      <path id="Fill_15" data-name="Fill 15" d="M.049,148.229c.067-.852.194-1.7.194-2.556q.018-34.229.009-68.46V74.352c3.237-.018,6.3-.04,9.361-.049,3.006-.008,6.013,0,9.241,0V55.7H37.26V52.854q0-25.159.012-50.319A24.2,24.2,0,0,1,37.533,0l-.048.04c3.737.048,7.473.107,11.21.142,2.29.021,4.58,0,7,0V74.24c-6.048.166-12.127-.033-18.291.108-.06.593-.139,1.007-.14,1.422q-.012,7.775.006,15.55a8.792,8.792,0,0,0,.247,1.453,11.826,11.826,0,0,0-1.287-.134q-8.1-.012-16.2,0a8.007,8.007,0,0,0-.976.116c-.431,2.916-.311,35.417.115,36.917H37.26v-2.425q0-16.091.009-32.182c0-.779.124-1.559.19-2.338H55.748v18.346c.85.056,1.471.13,2.092.131,4.806.01,9.612,0,14.419.011.785,0,1.571.071,2.354.106l-.07-.074c-.045,4.5-.111,9-.122,13.5,0,1.634.125,3.267.193,4.9l.049-.055c-.784.063-1.567.175-2.351.178-4.678.017-9.357.009-14.034.009h-2.4v18.448c-.889.053-1.516.123-2.143.123q-25.909.009-51.819,0c-.64,0-1.279-.116-1.919-.178Z" transform="translate(147.806 18.473)"/>
      <path id="Fill_17" data-name="Fill 17" d="M129.8.09c-.067.779-.188,1.558-.191,2.337-.018,5.177-.009,10.355-.009,15.833-3.068.26-6.058.088-9.035.12-3.015.031-6.03.006-9.273.006-.239,2.572-.092,5-.118,7.406-.026,2.447-.006,4.894-.006,7.34v22.4H92.657V73.726H37.2c-.1-5.948-.02-11.934-.043-18.186H74.03c0-6.24,0-12.26,0-18.283a18.422,18.422,0,0,1,2.3-.28c4.605-.027,9.21-.013,13.815-.013h2.311V18.628c-2.966-.473-16.819-.329-18.382.2v18.5a15.55,15.55,0,0,0-2.279-.343c-4.607-.033-9.215-.016-13.822-.017H55.438V18.521H37.2V36.856c-1.05.041-1.892.1-2.733.1-10.583.007-21.165,0-31.748.02a18.523,18.523,0,0,0-2.487.341l.027.033a11.766,11.766,0,0,1-.244-1.7C-.007,30.333,0,25.01.006,19.687c0-.346.061-.69.119-1.324H18.594V.119C19.33.072,19.886,0,20.442,0Q74.183,0,127.922,0c.643,0,1.286.084,1.934.132L129.8.09" transform="translate(185.067 426.035)"/>
      <path id="Fill_19" data-name="Fill 19" d="M.047,74.228V55.472h18.6V0H73.918c.423,1.544.517,15.624.087,18.463H55.86V37.026h-18.5V73.849H55.814V56.081a3.734,3.734,0,0,1,.289-.4.386.386,0,0,1,.18-.1,4.657,4.657,0,0,1,.844-.133q17.277-.008,34.554,0a8.785,8.785,0,0,1,1.125.185q0,9.334,0,18.688l.059-.063A9.111,9.111,0,0,0,91.4,74.02q-7.881-.025-15.761,0c-.354,0-.707.062-1.281.115v18.32c-1.107.05-2.007.126-2.908.126q-25.044.01-50.09.012c-.929,0-1.859.1-2.789.157l.051.045c.018-2.085.043-4.171.052-6.257s.015-4.172,0-6.259c-.016-2.053.076-4.115-.073-6.269-4.667,0-9.052-.014-13.437.008-1.721.008-3.442.1-5.163.152Z" transform="translate(240.406 0.192)"/>
      <path id="Fill_21" data-name="Fill 21" d="M18.854,111.021a6.446,6.446,0,0,1-1.055.173c-5.815.012-11.631.008-17.566.008A9.3,9.3,0,0,1,.038,109.9q0-26.964.023-53.923S0,56.037,0,56.04a18.4,18.4,0,0,1,2.3-.3c4.608-.029,9.215-.009,13.823-.019.77,0,1.54-.067,2.48-.112V52.854q0-25.159.012-50.319A24.169,24.169,0,0,1,18.876,0l-.048.04C21.119.088,23.41.181,25.7.175,29.357.166,33.012.09,36.668.042L36.618,0a21.241,21.241,0,0,1,.259,2.32c.025,4.679.012,9.359.012,14.038v2.312H55.373c.186,6.192.057,12.19.087,18.424H36.944c-.115,6.237-.021,12.244-.063,18.55,6.19.2,12.268-.029,18.455.133V74.242H18.81a15.3,15.3,0,0,0-.2,1.665q-.016,16.847,0,33.693a10.972,10.972,0,0,0,.195,1.476Z" transform="translate(333.215 18.473)"/>
      <path id="Fill_23" data-name="Fill 23" d="M18.114.248A9.135,9.135,0,0,1,19.585.012q7.88-.025,15.759,0c.415,0,.83.078,1.446.139V18.493h18.2c.475,1.757.576,34.19.145,36.948H36.868V92.584H18.116l.073.068q.023-27.243.034-54.487a6.8,6.8,0,0,0-.239-1.241H.006q.019-9.1.041-18.191L0,18.783c.777-.07,1.553-.2,2.331-.2,4.513-.02,9.027,0,13.541-.016.749,0,1.5-.082,2.321-.131V.15Z" transform="translate(481.47 203.8)"/>
      <path id="Fill_25" data-name="Fill 25" d="M37.148.235A9.722,9.722,0,0,1,38.623.011Q46.5-.013,54.37.007c.414,0,.828.077,1.354.128v73.6c-1.449.4-15.258.522-18.424.119V55.481H34.729q-16.073,0-32.143,0c-.862,0-1.724-.033-2.586-.05l.077.072q0-9.1,0-18.2l-.069.071c.778-.074,1.555-.209,2.333-.213,4.659-.02,9.32,0,13.979-.016.751,0,1.5-.078,2.211-.118a6.761,6.761,0,0,0,.149-.882q-.007-8.709-.027-17.418l-.069.071c.778-.074,1.555-.209,2.333-.213,4.66-.02,9.32,0,13.979-.016.751,0,1.5-.078,2.332-.125V.15Z" transform="translate(110.782 185.224)"/>
      <path id="Fill_27" data-name="Fill 27" d="M.2.053C1.056.1,1.914.18,2.771.18q43.4.01,86.8.006h2.72V18.645H.189a5.543,5.543,0,0,1-.178-.982q-.02-8.2,0-16.409A6.877,6.877,0,0,1,.245,0S.2.053.2.053" transform="translate(222.222 148.072)"/>
      <path id="Fill_29" data-name="Fill 29" d="M37.146,55.14c-.64.062-1.279.178-1.919.178q-16.62.016-33.241,0c-.627,0-1.255-.07-1.986-.113V0H18.358V18.266c.96.06,1.715.145,2.47.147,4.6.013,9.21-.012,13.814.024a17.649,17.649,0,0,1,2.508.37l-.025-.031a12.762,12.762,0,0,0-.222,1.667q-.021,16.534,0,33.07a14.161,14.161,0,0,0,.195,1.682Z" transform="translate(148.171 444.578)"/>
      <path id="Fill_31" data-name="Fill 31" d="M18.636,18.456q6.783.066,13.567.131c1.422.013,2.845,0,4.449,0V.122C42.888-.109,48.945.069,55.136.01c.062.7.152,1.248.153,1.8q.012,16.819-.005,33.64a14.012,14.012,0,0,1-.251,1.893s.045-.05.041-.047q-6.683-.06-13.358-.126c-1.57-.014-3.141,0-4.965,0V55.631H0V37.213H18.434V34.971c0-4.745-.012-9.491.011-14.236a22.754,22.754,0,0,1,.238-2.331l-.047.052" transform="translate(333.384 111.093)"/>
      <path id="Fill_33" data-name="Fill 33" d="M36.828,37.3a19.162,19.162,0,0,0-2.493-.325q-15.852-.035-31.7-.015H0V18.614H18.222a4.513,4.513,0,0,0,.221-.843q.016-8.41,0-16.822a3.7,3.7,0,0,0-.2-.822L18.2.176A17.013,17.013,0,0,1,19.9.007Q36.96-.008,54.017,0c.424,0,.847.034,1.516.064.17,6.126.044,12.19.089,18.441H37.129c-.034.862-.084,1.552-.085,2.241-.007,4.678.009,9.356-.016,14.034,0,.854-.154,1.708-.237,2.561Z" transform="translate(111.017 277.859)"/>
      <path id="Fill_35" data-name="Fill 35" d="M37.173,18.245c-.784.061-1.568.172-2.353.175-4.677.017-9.356,0-14.034.013-.7,0-1.4.061-2.286.1v36.7H0V0H36.772c.044.676.118,1.3.12,1.929.01,4.75,0,9.5.014,14.25a20.22,20.22,0,0,0,.213,2.109l.054-.043" transform="translate(148.167 0.228)"/>
      <g id="Group_39" data-name="Group 39" transform="translate(0 313.938)">
        <path id="Clip_38-2" data-name="Clip 38" d="M0,0H18.553V74.022H0Z" transform="translate(0 0.805)" fill="red"/>
        <g id="Group_39-2" data-name="Group 39" clip-path="url(#clip-path-2)">
          <path id="Fill_37" data-name="Fill 37" d="M18.289,74.022H0V.451C1.65,0,14.01-.163,18.088.2c.464,1.5.666,69.478.2,73.822" transform="translate(0 0.805)"/>
        </g>
      </g>
      <path id="Fill_40" data-name="Fill 40" d="M36.658,37H18.365V55.515c-6.239,0-12.24,0-18.237,0l.073.077C.136,54.888.009,54.18.008,53.472Q-.008,27.915,0,2.359c0-.7.06-1.4.1-2.217C.627.087,1.038.009,1.449.008q7.656-.013,15.312,0a10.366,10.366,0,0,1,1.473.21L18.187.157l.167,18.417h2.558c4.52,0,9.042-.009,13.562.01.78,0,1.558.129,2.336.2l-.05-.046q.033,8.865.057,17.727a1.8,1.8,0,0,1-.221.587Z" transform="translate(222.218 74.2)"/>
      <path id="Fill_42" data-name="Fill 42" d="M37.386.035q-.066,6.789-.131,13.579c-.014,1.567,0,3.133,0,4.885H18.769c-.227,6.241.015,12.311-.142,18.507H.453C0,35.526-.192,4.772.245.187A7.715,7.715,0,0,1,1.435.008Q18.913-.007,36.391,0c.356,0,.713.07,1.066.1L37.386.035" transform="translate(55.363 259.285)"/>
      <path id="Fill_44" data-name="Fill 44" d="M37.4.087c-.066.779-.19,1.557-.191,2.336Q37.189,18.5,37.2,34.578v2.443H18.689V18.65H.452C-.028,16.963-.163,3.441.23.153A6.3,6.3,0,0,1,1.212.006Q18.8-.006,36.388,0a8.591,8.591,0,0,1,1.071.129L37.4.087" transform="translate(314.616 499.91)"/>
      <path id="Fill_46" data-name="Fill 46" d="M0,.174A12.753,12.753,0,0,1,1.489.006Q18.854-.007,36.223,0c.281,0,.563.042,1.117.087.163,6.077.038,12.139.081,18.341H.37c-.036-.769-.1-1.468-.1-2.167C.264,11.591.276,6.916.257,2.241.254,1.537.116.833.045.125.048.12,0,.174,0,.174" transform="translate(499.439 388.885)"/>
      <path id="Clip_49-2" data-name="Clip 49" d="M0,536.938H536.887V0H0Z" fill="none"/>
      <g clip-path="url(#clip-path-3)">
        <path id="Fill_48" data-name="Fill 48" d="M0,18.331H36.829V0H0Z" transform="translate(0.044 277.983)"/>
        <path id="Fill_50" data-name="Fill 50" d="M.049,18.543c.068-.779.192-1.558.2-2.337C.261,10.963.253,5.72.253.512,1.866,0,32.6-.2,37.22.255a5.248,5.248,0,0,1,.169.956q.018,8.2,0,16.392a6.291,6.291,0,0,1-.248,1.246s.045-.051.042-.046c-.787-.04-1.57-.123-2.353-.123q-16.135-.013-32.271-.014c-.853,0-1.705-.116-2.558-.178Z" transform="translate(258.83 370.207)"/>
        <path id="Fill_51" data-name="Fill 51" d="M.049,36.8c.068-.78.194-1.559.2-2.338Q.263,18.6.253,2.734V.453C1.99-.069,16.194-.165,18.706.3v36.44a4.027,4.027,0,0,1-.816.176q-8.418.017-16.834,0A6.548,6.548,0,0,1,0,36.744Z" transform="translate(499.454 481.551)"/>
        <path id="Fill_52" data-name="Fill 52" d="M.177.055c.787.035,1.574.1,2.362.1q15.848.009,31.694,0h2.478V18.616H.185a5.579,5.579,0,0,1-.174-.987q-.02-8.193,0-16.386A6.9,6.9,0,0,1,.243,0L.177.055" transform="translate(203.645 518.322)"/>
        <path id="Fill_53" data-name="Fill 53" d="M.05,18.224c.067-.708.191-1.415.193-2.123.019-4.532.01-9.064.01-13.6V.442C2.013-.067,34.762-.166,37.282.3V18.208c-.517.052-1,.14-1.478.14q-17.051.012-34.1,0A16.148,16.148,0,0,1,0,18.169Z" transform="translate(499.454 351.95)"/>
        <path id="Fill_54" data-name="Fill 54" d="M.047,18.321A21.176,21.176,0,0,0,.26,16.214C.279,11.543.266,6.872.275,2.2c0-.7.063-1.4.1-2.2h18.31V18.3a4.479,4.479,0,0,1-.812.15q-8.3.016-16.6,0A9.337,9.337,0,0,1,0,18.283l.047.038" transform="translate(369.836 0.195)"/>
        <path id="Fill_55" data-name="Fill 55" d="M18.206,0a9.2,9.2,0,0,1,.238,1.465q.026,7.983.006,15.966c0,.35-.05.7-.088,1.188H0V.333C.645.284,1.263.2,1.881.194c4.746-.011,9.493,0,14.24-.012.714,0,1.428-.078,2.138-.123L18.206,0" transform="translate(240.624 388.694)"/>
        <path id="Fill_56" data-name="Fill 56" d="M18.912,18.246a12.764,12.764,0,0,1-1.487.175c-5.671.012-11.343.008-16.983.008C-.022,16.812-.165,3.616.228,0h18.3c.037.769.1,1.469.1,2.168.009,4.672-.005,9.343.013,14.015a20.162,20.162,0,0,0,.213,2.106l.054-.043" transform="translate(333.179 0.227)"/>
        <path id="Fill_57" data-name="Fill 57" d="M0,.15C2.225.1,4.448.025,6.672.012c3.945-.023,7.891-.007,11.8-.007.445,1.662.566,15.316.18,18.442H.268V16.234c0-4.673.007-9.346-.009-14.02C.256,1.507.137.8.066.1L0,.15" transform="translate(258.815 111.1)"/>
        <path id="Fill_58" data-name="Fill 58" d="M0,18.292H18.163V0H0Z" transform="translate(296.349 111.269)"/>
        <path id="Fill_59" data-name="Fill 59" d="M18.452,18.484H.4C-.049,16.8-.15,2.81.248,0H18.374a3.888,3.888,0,0,1,.211.912q.021,8.3,0,16.6a5.37,5.37,0,0,1-.208,1.034l.072-.062" transform="translate(110.876 148.396)"/>
        <path id="Fill_60" data-name="Fill 60" d="M18.55,0a8.96,8.96,0,0,1,.237,1.456q.026,8.147,0,16.294a9.82,9.82,0,0,1-.116,1.062l.084-.085c-4.643-.05-9.286-.118-13.929-.142-1.568-.008-3.135.1-4.7.149l.046.057Q.126,9.509.076.23L0,.295Q8.022.245,16.051.183C16.9.175,17.754.1,18.6.059L18.55,0" transform="translate(129.256 166.647)"/>
        <path id="Fill_61" data-name="Fill 61" d="M0,18.288V0H18.111c.436,1.447.586,14.681.178,18.288Z" transform="translate(277.769 518.629)"/>
        <path id="Fill_62" data-name="Fill 62" d="M18.45,0q-.068,6.793-.132,13.586c-.014,1.567,0,3.134,0,4.823H0V.307C.177.187.29.043.4.043Q9.462.049,18.52.074L18.45,0" transform="translate(166.748 518.52)"/>
        <path id="Fill_63" data-name="Fill 63" d="M.2.052C3.132.1,6.064.159,9,.18c3.078.022,6.156,0,9.486,0,.032.792.082,1.478.083,2.165.008,4.73,0,9.461.012,14.192,0,.708.108,1.415.171,2.118l.07-.059c-1.281.051-2.566.144-3.851.152-4.949.028-9.9.029-14.842.043l.073.077a6.083,6.083,0,0,1-.188-1.042q-.019-8.29,0-16.581A6.733,6.733,0,0,1,.245,0L.2.052" transform="translate(185.069 499.721)"/>
        <path id="Fill_64" data-name="Fill 64" d="M0,.179C.784.12,1.568.012,2.353.01,7.739-.005,13.125,0,18.62,0a6.539,6.539,0,0,1,.207,1.1q.02,8.2,0,16.4a6.369,6.369,0,0,1-.248,1.248l.042-.047c-2.933-.04-5.863-.1-8.793-.124-3.075-.022-6.151,0-9.482,0C.317,17.787.272,17.1.271,16.415c0-4.726.006-9.452-.013-14.178,0-.7-.142-1.4-.213-2.107L0,.179" transform="translate(110.638 259.28)"/>
        <path id="Fill_65" data-name="Fill 65" d="M18.211,18.8a12.194,12.194,0,0,0-2.03-.353c-4.6-.031-9.192-.011-13.787-.021-.771,0-1.54-.063-2.394-.1V0H18.222a4.434,4.434,0,0,1,.216.969q.022,8.186,0,16.373a8.71,8.71,0,0,1-.251,1.473l.021-.018" transform="translate(111.024 333.546)"/>
        <path id="Fill_66" data-name="Fill 66" d="M0,.378A7.855,7.855,0,0,1,1.641.017C6.953-.009,12.266,0,17.578.01A9.908,9.908,0,0,1,18.7.148V18.414H.374c-.045-.723-.116-1.348-.117-1.973-.01-4.666,0-9.333-.015-14,0-.7-.129-1.408-.2-2.108,0,0-.041.044-.041.044" transform="translate(147.807 314.825)"/>
        <path id="Fill_67" data-name="Fill 67" d="M18.3,18.706a19.224,19.224,0,0,0-2.3-.279c-4.523-.027-9.048-.013-13.571-.013H0V0H18.261c0,6.309,0,12.534,0,18.764l.043-.058" transform="translate(37.154 314.985)"/>
        <path id="Fill_68" data-name="Fill 68" d="M17.928,0a9.156,9.156,0,0,1,.238,1.463q.024,8.079,0,16.158c0,.281-.054.561-.1.989H0V.311C.607.271,1.224.195,1.842.193c4.668-.01,9.336,0,14-.011.713,0,1.426-.078,2.135-.123L17.928,0" transform="translate(481.526 518.295)"/>
        <path id="Fill_69" data-name="Fill 69" d="M17.989,0a9.031,9.031,0,0,1,.238,1.451q.026,8.018,0,16.036a8.367,8.367,0,0,1-.249,1.45s.045-.051.042-.046c-3.075-.04-6.146-.1-9.218-.126-2.934-.028-5.868-.029-8.8-.042l.058.057L.061.143,0,.2Q7.954.193,15.911.182c.712,0,1.423-.078,2.131-.123L17.989,0" transform="translate(481.465 370.119)"/>
        <path id="Fill_70" data-name="Fill 70" d="M18.119,0c.041,5.283.1,10.567.109,15.851,0,.983-.16,1.967-.25,2.953l.042-.046c-2.919-.04-5.834-.108-8.75-.123-3.062-.016-6.127.016-9.187.03,0,0,.071.074.074.077a1.282,1.282,0,0,1-.148-.4Q.033,9.173.073,0L0,.072H18.2Z" transform="translate(92.663 240.652)"/>
        <path id="Fill_71" data-name="Fill 71" d="M18.643,18.13H.051V.01L0,.057,18.635.071,18.567,0q0,9.1,0,18.2Z" transform="translate(74.093 222.526)"/>
        <path id="Fill_72" data-name="Fill 72" d="M18.349,18.364H.411C-.024,16.8-.16,3.407.23,0H18.252c.19,6.034.043,12.093.1,18.364" transform="translate(222.162 0.225)"/>
        <path id="Fill_73" data-name="Fill 73" d="M0,18.262H18.338V0H0Z" transform="translate(407.38 407.619)"/>
        <path id="Fill_74" data-name="Fill 74" d="M0,0H18.649q0,9.318,0,18.637H.183C.12,12.292.061,6.146,0,0" transform="translate(425.724 259.238)"/>
        <path id="Fill_75" data-name="Fill 75" d="M0,18.638Q0,9.32,0,0L37.215,0q-.055,7.863-.11,15.726c-.005.852,0,1.7,0,2.873L0,18.638" transform="translate(444.311 240.662)"/>
        <path id="Fill_76" data-name="Fill 76" d="M0,18.338Q0,9.243.007.149C2.218.095,4.429-.008,6.641,0c4,.014,8,.094,12,.148q0,9.094.006,18.189Z" transform="translate(425.727 222.385)"/>
        <path id="Fill_77" data-name="Fill 77" d="M27.242,0h.789A27.242,27.242,0,0,1,55.273,27.242v.919A27.236,27.236,0,0,1,28.112,55.4l-.817,0A27.238,27.238,0,0,1,0,28.162v-.92A27.242,27.242,0,0,1,27.242,0" transform="translate(444.231 37.257)"/>
        <path id="Fill_78" data-name="Fill 78" d="M55.257,55.435H0V.411C1.5-.016,51.987-.177,55.257.255Z" transform="translate(37.095 37.093)"/>
        <path id="Fill_79" data-name="Fill 79" d="M55.493,27.35v.814a27.35,27.35,0,0,1-27.35,27.349h-.791A27.352,27.352,0,0,1,0,28.269l0-.812A27.357,27.357,0,0,1,27.287,0l.8,0A27.348,27.348,0,0,1,55.493,27.35" transform="translate(36.852 444.196)"/>
        <path id="Fill_80" data-name="Fill 80" d="M77.412,154.763c-2.547,0-5.139-.127-7.7-.377C32.3,150.724,2.395,119.67.145,82.153A77.386,77.386,0,0,1,77.382,0l.989.008c1.506.017,3.039.081,4.558.19L85.14.384a3.584,3.584,0,0,1,.467.072,10.8,10.8,0,0,1,8.367,10.471,10.683,10.683,0,0,1-1.006,4.554L62.081,68.919l-.549,1,.044.025A17.484,17.484,0,0,0,84.093,93.576a12.826,12.826,0,0,0,4.342-3.083A25.182,25.182,0,0,0,90.8,87.628c.44-.636.938-1.357,1.372-2.108.438-.781.812-1.435,1.215-2.092l2.47-4.092a25.411,25.411,0,0,1,5.023-6.571,20.879,20.879,0,0,1,10.5-5.13,22.732,22.732,0,0,1,2.4-.271l.017.152.257-.025c.572-.052,1.156-.078,1.736-.078a20.7,20.7,0,0,1,9.282,2.245L108.96,97.477A37.36,37.36,0,0,1,77.133,115.3c-1.034,0-2.084-.044-3.12-.13A37.266,37.266,0,0,1,46.629,99.348a37.7,37.7,0,0,1-2.914-4.923l-.339-.73-.1-.22a36.8,36.8,0,0,1-3.316-15.041,37.818,37.818,0,0,1,3.091-15.283c.154-.482.328-1.028.5-1.474.319-.677.655-1.342,1-1.975L60.461,32.159a5.451,5.451,0,0,0,.431-2.138,5.507,5.507,0,0,0-5.5-5.5,5.565,5.565,0,0,0-1.847.324l-1,.464A58,58,0,0,0,19.7,77.381,57.309,57.309,0,0,0,30.92,111.52a69.932,69.932,0,0,0,18.411,15.512,69.993,69.993,0,0,0,19.21,7.344,57.721,57.721,0,0,0,63.646-75.04,58.368,58.368,0,0,0-2.168-5.585,27.644,27.644,0,0,1,1.3-25.816l2.655-4.329a67.075,67.075,0,0,1,6.463,8.9l.143.239.043.03c1.364,1.932,2.652,3.945,3.829,5.983,1.218,2.109,2.351,4.308,3.369,6.536a76.875,76.875,0,0,1,6.486,23.618,78.417,78.417,0,0,1,.458,8.47c0,1.694-.072,3.461-.233,5.729l-.082,1.076c-.166,1.907-.376,3.658-.643,5.354l-.162.926c-.214,1.464-.538,2.9-.938,4.617l-.224.967c-.422,1.7-.91,3.417-1.449,5.09l-.328.964c-.46,1.374-.992,2.747-1.506,4.075l-.026.068-.368.946c-.636,1.525-1.37,3.112-2.243,4.853l-.44.86a77.655,77.655,0,0,1-5.632,9.229l-.444.625c-1.108,1.525-2.234,2.971-3.346,4.3l-.186.215c-1.138,1.35-2.364,2.7-3.643,4.018l-.236.248c-1.265,1.291-2.623,2.58-4.038,3.83l-.328.283a77.792,77.792,0,0,1-8.989,6.773l-.345.22a77.3,77.3,0,0,1-10.057,5.415l-.253.114c-1.964.868-4.013,1.67-6.089,2.384l-.116.039A77.116,77.116,0,0,1,77.412,154.763ZM95.219,56.742A7.419,7.419,0,0,1,88.9,45.459l14.6-23.911a15.969,15.969,0,0,1,5.946-5.678,16.015,16.015,0,0,1,15.024-.212L101.564,53.185a7.37,7.37,0,0,1-4.586,3.345A7.461,7.461,0,0,1,95.219,56.742Z" transform="translate(193.646 191.175)"/>
      </g>
    </g>
  </g>
</svg>
