<svg id="pagos" xmlns="http://www.w3.org/2000/svg" xmlns:xlink="http://www.w3.org/1999/xlink" width="12" height="12" viewBox="0 0 12 12">
  <defs>
    <clipPath id="clip-path">
      <rect width="12" height="12" fill="none"/>
    </clipPath>
  </defs>
  <g id="pagos-2" data-name="pagos" transform="translate(0 0)" clip-path="url(#clip-path)">
    <path id="Fill_1" data-name="Fill 1" d="M8.8,9.4A14.185,14.185,0,0,0,5.365,6.639H9.392V7.63L12,5.926l-2.608-1.7v.991H5.628A14.475,14.475,0,0,0,8.8,2.6l.609.689L10.185,0,7.276.882l.6.676A10.568,10.568,0,0,1,.983,5.212H0V6.74a10.385,10.385,0,0,1,7.873,3.7l-.6.676L10.185,12l-.78-3.292Z" fill="#FFC65A"/>
  </g>
</svg>
