<svg xmlns="http://www.w3.org/2000/svg" xmlns:xlink="http://www.w3.org/1999/xlink" width="19.786" height="24.773" viewBox="0 0 19.786 24.773"><defs><style>.a{fill:none;}.b{clip-path:url(#a);}.c{fill:#FFC65A;}</style><clipPath id="a"><rect class="a" width="19.786" height="24.773"/></clipPath></defs><g class="b"><g transform="translate(0 0)"><path class="c" d="M19.772,5.712c0-1.538-.727-3.438-1.7-3.757-.711-.233-2.722-1.263-3.751-1.8A1.259,1.259,0,0,0,13.187.117,8.933,8.933,0,0,1,9.894.845,8.929,8.929,0,0,1,6.6.117,1.261,1.261,0,0,0,5.465.156c-1.029.536-3.04,1.566-3.751,1.8-.972.319-1.7,2.219-1.7,3.757S-.272,8.374,1.707,9.25a19.525,19.525,0,0,0,8.187,1.785A19.533,19.533,0,0,0,18.081,9.25c1.978-.876,1.691-2,1.691-3.538" transform="translate(0 13.738)"/><path class="c" d="M.1,8.147a4.1,4.1,0,0,0,1.867,3.279l1.248.8a2.867,2.867,0,0,0,3.126,0l1.248-.8A4.1,4.1,0,0,0,9.456,8.147c0-.009,0-.018,0-.026l.1-2.855A5.056,5.056,0,0,0,4.778,0,5.055,5.055,0,0,0,0,5.266L.1,8.121a.217.217,0,0,1,0,.026" transform="translate(5.115 0)"/></g></g></svg>